<?xml version="1.0" standalone="no"?>
<!DOCTYPE svg PUBLIC "-//W3C//DTD SVG 20010904//EN"
 "http://www.w3.org/TR/2001/REC-SVG-20010904/DTD/svg10.dtd">
<svg version="1.0" xmlns="http://www.w3.org/2000/svg"
 width="288.000000pt" height="288.000000pt" viewBox="0 0 288.000000 288.000000"
 preserveAspectRatio="xMidYMid meet">

<g transform="translate(0.000000,288.000000) scale(0.100000,-0.100000)"
fill="#000000" stroke="none">
<path d="M1276 2699 c-521 -72 -937 -444 -1065 -951 -32 -125 -46 -286 -34
-393 l10 -90 2 105 c4 164 10 220 26 237 18 17 19 10 4 -19 -14 -26 -6 -33 15
-13 13 13 20 14 37 4 18 -9 25 -9 34 5 7 9 18 16 26 16 11 0 11 2 -1 10 -13 9
-13 10 0 10 12 0 16 -21 18 -113 2 -61 7 -141 11 -177 7 -56 8 -45 10 76 1
160 18 265 62 392 64 183 165 338 312 479 135 130 297 212 498 253 135 28 357
24 487 -9 158 -40 405 -176 526 -290 117 -110 221 -280 270 -441 34 -116 46
-195 46 -324 0 -60 3 -106 7 -102 8 8 10 29 12 134 1 46 5 71 11 67 6 -3 10 2
10 12 0 10 5 25 11 33 8 12 9 10 4 -7 -7 -27 2 -29 33 -7 22 15 22 15 23 -28
1 -24 2 -50 3 -58 2 -8 4 -67 6 -130 l3 -115 9 85 c12 104 -2 278 -33 399
-121 478 -497 836 -984 936 -96 20 -314 28 -409 14z m1323 -1089 c0 -10 -3 -8
-9 5 -12 27 -12 43 0 25 5 -8 9 -22 9 -30z m63 4 c-6 -11 -11 -13 -16 -5 -4 6
-2 11 3 11 6 0 11 8 12 18 0 9 3 12 5 5 3 -7 1 -20 -4 -29z"/>
<path d="M1055 2258 c44 -434 176 -651 385 -636 l48 3 11 -95 c6 -52 15 -140
20 -195 l10 -100 -3 115 -3 115 14 -60 c8 -33 18 -85 23 -115 8 -50 9 -49 4
20 -7 103 -49 293 -91 420 -40 120 -61 164 -99 209 -39 47 -21 51 22 5 44 -48
77 -103 120 -201 32 -74 33 -75 41 -47 4 16 8 79 8 139 -1 102 -3 115 -32 177
-56 119 -162 198 -317 237 -42 11 -97 31 -122 46 l-45 27 6 -64z m365 -602 c0
-2 -7 -7 -16 -10 -8 -3 -12 -2 -9 4 6 10 25 14 25 6z m36 -8 c4 -7 3 -8 -4 -4
-7 4 -12 2 -12 -5 0 -7 -3 -10 -6 -6 -6 5 3 27 11 27 2 0 7 -5 11 -12z"/>
<path d="M1995 1734 c-171 -47 -327 -141 -370 -224 -22 -43 -28 -97 -15 -150
7 -27 15 -52 19 -54 10 -7 167 84 208 119 18 17 36 41 38 54 2 13 1 21 -2 17
-4 -4 -8 -14 -9 -23 -2 -9 -9 -20 -16 -24 -7 -4 -26 -19 -43 -33 -16 -14 -35
-26 -41 -26 -6 0 -17 -6 -23 -14 -10 -12 -92 -56 -105 -56 -2 0 -9 21 -15 46
-13 49 -3 103 25 134 7 8 13 18 13 23 2 18 27 47 41 47 13 0 13 -1 0 -10 -8
-5 -11 -12 -7 -17 10 -9 28 18 23 33 -3 8 9 8 42 0 35 -8 47 -7 50 2 2 7 11
12 20 12 15 0 15 -2 2 -10 -12 -8 -10 -10 8 -10 13 0 20 4 17 10 -3 6 1 10 10
10 9 0 13 -4 10 -10 -3 -5 3 -10 14 -10 10 0 22 6 24 13 4 10 6 10 6 0 1 -9
17 -13 46 -13 29 0 45 4 45 13 0 6 5 4 11 -5 12 -22 29 -23 29 -3 0 8 5 15 10
15 12 0 14 -37 2 -44 -4 -2 -9 -19 -10 -37 -3 -40 -45 -126 -74 -151 -12 -10
-19 -20 -16 -23 9 -10 69 66 88 111 22 51 40 141 40 201 0 24 7 59 14 78 18
43 17 43 -109 9z m-91 -90 c3 -8 2 -12 -4 -9 -6 3 -10 10 -10 16 0 14 7 11 14
-7z m-67 -21 c0 -8 -6 -9 -16 -4 -10 6 -21 4 -30 -6 -12 -13 -11 -14 10 -8
l24 7 -23 -17 c-18 -13 -29 -15 -45 -7 -12 6 -16 11 -9 11 8 1 10 6 6 14 -4 6
-4 9 1 5 4 -4 16 -2 25 5 23 16 57 16 57 0z m56 -20 c-7 -2 -19 -2 -25 0 -7 3
-2 5 12 5 14 0 19 -2 13 -5z"/>
<path d="M321 1574 c0 -11 3 -14 6 -6 3 7 2 16 -1 19 -3 4 -6 -2 -5 -13z"/>
<path d="M2655 1571 c-3 -5 -1 -12 5 -16 5 -3 10 1 10 9 0 18 -6 21 -15 7z"/>
<path d="M924 1549 c8 -12 23 -57 32 -100 9 -44 21 -79 26 -79 5 0 7 4 4 8 -3
5 -10 35 -16 68 -12 71 -13 76 -23 91 -8 13 -6 13 83 -3 19 -3 46 -7 60 -8 14
-2 41 -7 60 -13 19 -6 56 -16 82 -23 26 -7 45 -16 42 -21 -3 -5 2 -6 10 -3 9
3 16 1 16 -5 0 -6 6 -11 13 -11 26 0 106 -92 113 -129 9 -54 12 -60 13 -21 2
87 -103 178 -259 224 -54 16 -218 46 -253 46 -17 0 -17 -2 -3 -21z"/>
<path d="M985 1520 c-3 -6 1 -7 9 -4 18 7 21 14 7 14 -6 0 -13 -4 -16 -10z"/>
<path d="M1676 1517 c3 -10 9 -15 12 -12 3 3 0 11 -7 18 -10 9 -11 8 -5 -6z"/>
<path d="M1845 1403 c-22 -25 -57 -57 -77 -71 -21 -13 -35 -28 -32 -33 3 -5
17 2 32 16 15 14 32 25 39 25 7 0 12 4 11 8 -3 10 51 62 64 62 5 0 6 5 3 10
-3 6 -1 10 4 10 6 0 11 5 11 10 0 18 -15 8 -55 -37z"/>
<path d="M980 1352 c0 -4 15 -32 33 -62 30 -52 105 -120 130 -120 7 0 -4 9
-23 21 -56 33 -141 145 -123 163 4 3 1 6 -5 6 -7 0 -12 -4 -12 -8z"/>
<path d="M2567 1343 c-4 -3 -7 -18 -6 -32 1 -26 1 -25 10 3 9 31 7 41 -4 29z"/>
<path d="M1896 1309 c-22 -12 -60 -25 -85 -29 -38 -6 -41 -8 -14 -9 34 -1 139
34 148 50 9 14 -6 10 -49 -12z"/>
<path d="M1199 1306 c14 -16 71 -51 71 -43 0 3 -19 17 -42 32 -25 16 -37 21
-29 11z"/>
<path d="M1190 1275 c19 -19 36 -35 39 -35 3 0 -10 16 -29 35 -19 19 -36 35
-39 35 -3 0 10 -16 29 -35z"/>
<path d="M1670 1270 c-25 -16 -38 -30 -30 -30 13 0 13 -1 0 -10 -9 -6 -17 -5
-22 3 -6 9 -8 9 -8 0 0 -21 19 -24 38 -6 10 10 25 19 33 21 7 2 20 8 29 13 11
7 9 8 -10 4 l-25 -6 25 20 c36 30 22 25 -30 -9z"/>
<path d="M1740 1270 c-9 -6 -10 -10 -3 -10 6 0 15 5 18 10 8 12 4 12 -15 0z"/>
<path d="M2551 1264 c0 -11 3 -14 6 -6 3 7 2 16 -1 19 -3 4 -6 -2 -5 -13z"/>
<path d="M192 1235 c0 -16 2 -22 5 -12 2 9 2 23 0 30 -3 6 -5 -1 -5 -18z"/>
<path d="M372 1240 c0 -14 2 -19 5 -12 2 6 2 18 0 25 -3 6 -5 1 -5 -13z"/>
<path d="M1431 1243 c-1 -29 -14 -35 -47 -23 -15 6 -29 9 -31 6 -2 -2 12 -9
32 -16 43 -14 59 -4 52 31 -4 23 -4 23 -6 2z"/>
<path d="M2682 1235 c0 -16 2 -22 5 -12 2 9 2 23 0 30 -3 6 -5 -1 -5 -18z"/>
<path d="M1245 1230 c7 -11 65 -43 65 -36 0 2 -16 13 -36 25 -19 12 -32 16
-29 11z"/>
<path d="M2541 1228 c0 -9 -4 -25 -7 -35 -5 -17 -5 -17 6 0 6 10 9 25 7 35 -4
15 -5 15 -6 0z"/>
<path d="M1586 1214 c-4 -9 -4 -19 -1 -22 3 -3 5 0 5 7 0 7 4 9 10 6 6 -3 7 1
4 9 -8 20 -10 20 -18 0z"/>
<path d="M382 1180 c0 -14 2 -19 5 -12 2 6 2 18 0 25 -3 6 -5 1 -5 -13z"/>
<path d="M201 1174 c0 -11 3 -14 6 -6 3 7 2 16 -1 19 -3 4 -6 -2 -5 -13z"/>
<path d="M2671 1174 c0 -11 3 -14 6 -6 3 7 2 16 -1 19 -3 4 -6 -2 -5 -13z"/>
<path d="M1511 1164 c0 -11 3 -14 6 -6 3 7 2 16 -1 19 -3 4 -6 -2 -5 -13z"/>
<path d="M1574 1095 c0 -49 1 -71 3 -48 2 23 2 64 0 90 -2 26 -3 8 -3 -42z"/>
<path d="M1175 1160 c11 -5 29 -8 40 -8 16 0 15 2 -5 8 -34 11 -60 11 -35 0z"/>
<path d="M1355 1161 c-7 -12 61 -35 80 -27 8 3 15 1 15 -4 0 -6 13 -9 29 -8
16 1 27 6 24 11 -3 4 -12 6 -21 2 -8 -3 -18 -1 -22 5 -4 6 -25 12 -48 13 -22
0 -38 5 -36 9 3 4 1 8 -5 8 -5 0 -12 -4 -16 -9z"/>
<path d="M2521 1163 c-1 -6 -4 -20 -7 -30 -5 -17 -5 -17 6 0 6 10 9 23 6 30
-3 9 -5 9 -5 0z"/>
<path d="M391 1134 c0 -11 3 -14 6 -6 3 7 2 16 -1 19 -3 4 -6 -2 -5 -13z"/>
<path d="M585 1060 c4 -6 11 -8 16 -5 14 9 11 15 -7 15 -8 0 -12 -5 -9 -10z"/>
<path d="M1502 1040 c0 -14 2 -19 5 -12 2 6 2 18 0 25 -3 6 -5 1 -5 -13z"/>
<path d="M750 926 c0 -2 8 -10 18 -17 15 -13 16 -12 3 4 -13 16 -21 21 -21 13z"/>
</g>
</svg>
